<?xml version="1.0" standalone="no"?>
<!DOCTYPE svg PUBLIC "-//W3C//DTD SVG 20010904//EN"
 "http://www.w3.org/TR/2001/REC-SVG-20010904/DTD/svg10.dtd">
<svg version="1.0" xmlns="http://www.w3.org/2000/svg"
 width="100.000000pt" height="100.000000pt" viewBox="0 0 100.000000 100.000000"
 preserveAspectRatio="xMidYMid meet">
<metadata>
Created by potrace 1.11, written by Peter Selinger 2001-2013
</metadata>
<g transform="translate(0.000000,100.000000) scale(0.100000,-0.100000)"
fill="#000000" stroke="none">
<path d="M523 965 c-132 -41 -209 -121 -301 -313 -65 -135 -64 -171 5 -312 85
-174 151 -247 270 -296 95 -39 172 -30 247 27 56 44 81 97 81 173 -1 74 -27
134 -92 206 l-45 50 42 47 c86 98 118 203 86 287 -45 117 -166 171 -293 131z
m126 -54 c31 -1 111 -81 112 -112 3 -59 -2 -91 -20 -126 -21 -41 -89 -123
-101 -123 -4 0 -38 20 -75 45 -78 51 -145 76 -210 78 -40 2 -44 4 -39 22 15
49 100 147 149 172 47 25 126 51 144 48 9 -2 27 -4 40 -4z m-227 -317 c44 -17
158 -85 158 -94 0 -12 -123 -83 -166 -96 -60 -18 -94 -18 -121 1 -19 13 -21
25 -21 95 0 70 2 82 21 95 28 20 76 19 129 -1z m263 -186 c94 -108 103 -212
24 -282 -39 -36 -53 -40 -117 -38 -45 2 -129 42 -173 83 -44 41 -109 126 -109
142 0 7 19 13 48 14 62 2 144 34 212 83 30 21 60 39 67 39 6 1 28 -18 48 -41z"/>
</g>
</svg>
